<?xml version="1.0" encoding="UTF-8" standalone="no"?>
<svg
   xmlns:dc="http://purl.org/dc/elements/1.1/"
   xmlns:cc="http://creativecommons.org/ns#"
   xmlns:rdf="http://www.w3.org/1999/02/22-rdf-syntax-ns#"
   xmlns:svg="http://www.w3.org/2000/svg"
   xmlns="http://www.w3.org/2000/svg"
   xmlns:sodipodi="http://sodipodi.sourceforge.net/DTD/sodipodi-0.dtd"
   xmlns:inkscape="http://www.inkscape.org/namespaces/inkscape"
   viewBox="0 0 80 80"
   version="1.1"
   id="svg6"
   sodipodi:docname="company.svg"
   width="80px"
   height="80px"
   fill="white"
   opacity="0.8"
   stroke-width="0"
   inkscape:version="0.92.3 (2405546, 2018-03-11)">
  <metadata
     id="metadata12">
    <rdf:RDF>
      <cc:Work
         rdf:about="">
        <dc:format>image/svg+xml</dc:format>
        <dc:type
           rdf:resource="http://purl.org/dc/dcmitype/StillImage" />
        <dc:title></dc:title>
      </cc:Work>
    </rdf:RDF>
  </metadata>
  <defs
     id="defs10" />
  <sodipodi:namedview
     pagecolor="#ffffff"
     bordercolor="#666666"
     borderopacity="1"
     objecttolerance="10"
     gridtolerance="10"
     guidetolerance="10"
     inkscape:pageopacity="0"
     inkscape:pageshadow="2"
     inkscape:window-width="2560"
     inkscape:window-height="1398"
     id="namedview8"
     showgrid="false"
     inkscape:zoom="4.9166667"
     inkscape:cx="38.816032"
     inkscape:cy="9.2262675"
     inkscape:window-x="3840"
     inkscape:window-y="20"
     inkscape:window-maximized="0"
     inkscape:current-layer="svg6" />
  <path
     inkscape:connector-curvature="0"
     d="M 67,16 H 13 a 3,3 0 0 0 -3,3 v 42 a 3,3 0 0 0 3,3 h 54 a 3,3 0 0 0 3,-3 V 19 a 3,3 0 0 0 -3,-3 z m -3,33 a 9,9 0 0 0 -9,9 H 25 A 9,9 0 0 0 16,49 V 31 a 9,9 0 0 0 9,-9 h 30 a 9,9 0 0 0 9,9 z"
     id="path2"
     style="stroke-width:0" />
  <path
     inkscape:connector-curvature="0"
     d="m 40,28 c -6.618,0 -12,5.382 -12,12 0,6.618 5.382,12 12,12 6.618,0 12,-5.382 12,-12 0,-6.618 -5.382,-12 -12,-12 z m 0,18 c -3.309,0 -6,-2.691 -6,-6 0,-3.309 2.691,-6 6,-6 3.309,0 6,2.691 6,6 0,3.309 -2.691,6 -6,6 z"
     id="path4"
     style="stroke-width:0" />
</svg>
