<?xml version="1.0" encoding="UTF-8" standalone="no"?>
<svg
   xmlns:dc="http://purl.org/dc/elements/1.1/"
   xmlns:cc="http://creativecommons.org/ns#"
   xmlns:rdf="http://www.w3.org/1999/02/22-rdf-syntax-ns#"
   xmlns:svg="http://www.w3.org/2000/svg"
   xmlns="http://www.w3.org/2000/svg"
   xmlns:sodipodi="http://sodipodi.sourceforge.net/DTD/sodipodi-0.dtd"
   xmlns:inkscape="http://www.inkscape.org/namespaces/inkscape"
   fill="white"
   opacity="0.5"
   stroke-width="0"
   viewBox="0 0 640 512"
   height="64px"
   width="64px"
   version="1.1"
   id="svg4"
   sodipodi:docname="city.svg"
   inkscape:version="0.92.3 (2405546, 2018-03-11)">
  <metadata
     id="metadata10">
    <rdf:RDF>
      <cc:Work
         rdf:about="">
        <dc:format>image/svg+xml</dc:format>
        <dc:type
           rdf:resource="http://purl.org/dc/dcmitype/StillImage" />
      </cc:Work>
    </rdf:RDF>
  </metadata>
  <defs
     id="defs8" />
  <sodipodi:namedview
     pagecolor="#ffffff"
     bordercolor="#666666"
     borderopacity="1"
     objecttolerance="10"
     gridtolerance="10"
     guidetolerance="10"
     inkscape:pageopacity="0"
     inkscape:pageshadow="2"
     inkscape:window-width="2560"
     inkscape:window-height="1398"
     id="namedview6"
     showgrid="false"
     inkscape:zoom="3.6875"
     inkscape:cx="-32.677966"
     inkscape:cy="32"
     inkscape:window-x="3840"
     inkscape:window-y="20"
     inkscape:window-maximized="0"
     inkscape:current-layer="svg4" />
  <path
     style="stroke-width:0.78125"
     inkscape:connector-curvature="0"
     d="M 551.25,206 H 445 V 74.75 C 445,64.390625 436.60937,56 426.25,56 H 313.75 C 303.39062,56 295,64.390625 295,74.75 V 131 H 245 V 68.5 C 245,61.59375 239.40625,56 232.5,56 H 220 c -6.90625,0 -12.5,5.59375 -12.5,12.5 V 131 h -50 V 68.5 C 157.5,61.59375 151.90625,56 145,56 H 132.5 C 125.59375,56 120,61.59375 120,68.5 V 131 H 88.75 C 78.390625,131 70,139.39063 70,149.75 V 431 c 0,13.80469 11.195312,25 25,25 h 450 c 13.80469,0 25,-11.19531 25,-25 V 224.75 C 570,214.39063 561.60156,206 551.25,206 Z M 170,371.625 c 0,5.17969 -4.19531,9.375 -9.375,9.375 h -31.25 C 124.19531,381 120,376.80469 120,371.625 v -31.25 c 0,-5.17969 4.19531,-9.375 9.375,-9.375 h 31.25 c 5.17969,0 9.375,4.19531 9.375,9.375 z m 0,-75 c 0,5.17969 -4.19531,9.375 -9.375,9.375 h -31.25 C 124.19531,306 120,301.80469 120,296.625 v -31.25 c 0,-5.17969 4.19531,-9.375 9.375,-9.375 h 31.25 c 5.17969,0 9.375,4.19531 9.375,9.375 z m 0,-75 c 0,5.17969 -4.19531,9.375 -9.375,9.375 h -31.25 C 124.19531,231 120,226.80469 120,221.625 v -31.25 c 0,-5.17969 4.19531,-9.375 9.375,-9.375 h 31.25 c 5.17969,0 9.375,4.19531 9.375,9.375 z m 100,150 c 0,5.17969 -4.19531,9.375 -9.375,9.375 h -31.25 C 224.19531,381 220,376.80469 220,371.625 v -31.25 c 0,-5.17969 4.19531,-9.375 9.375,-9.375 h 31.25 c 5.17969,0 9.375,4.19531 9.375,9.375 z m 0,-75 c 0,5.17969 -4.19531,9.375 -9.375,9.375 h -31.25 C 224.19531,306 220,301.80469 220,296.625 v -31.25 c 0,-5.17969 4.19531,-9.375 9.375,-9.375 h 31.25 c 5.17969,0 9.375,4.19531 9.375,9.375 z m 0,-75 c 0,5.17969 -4.19531,9.375 -9.375,9.375 h -31.25 C 224.19531,231 220,226.80469 220,221.625 v -31.25 c 0,-5.17969 4.19531,-9.375 9.375,-9.375 h 31.25 c 5.17969,0 9.375,4.19531 9.375,9.375 z m 125,75 c 0,5.17969 -4.19531,9.375 -9.375,9.375 h -31.25 C 349.19531,306 345,301.80469 345,296.625 v -31.25 c 0,-5.17969 4.19531,-9.375 9.375,-9.375 h 31.25 c 5.17969,0 9.375,4.19531 9.375,9.375 z m 0,-75 c 0,5.17969 -4.19531,9.375 -9.375,9.375 h -31.25 C 349.19531,231 345,226.80469 345,221.625 v -31.25 c 0,-5.17969 4.19531,-9.375 9.375,-9.375 h 31.25 c 5.17969,0 9.375,4.19531 9.375,9.375 z m 0,-75 c 0,5.17969 -4.19531,9.375 -9.375,9.375 h -31.25 C 349.19531,156 345,151.80469 345,146.625 v -31.25 c 0,-5.17969 4.19531,-9.375 9.375,-9.375 h 31.25 c 5.17969,0 9.375,4.19531 9.375,9.375 z m 125,225 c 0,5.17969 -4.19531,9.375 -9.375,9.375 h -31.25 C 474.19531,381 470,376.80469 470,371.625 v -31.25 c 0,-5.17969 4.19531,-9.375 9.375,-9.375 h 31.25 c 5.17969,0 9.375,4.19531 9.375,9.375 z m 0,-75 c 0,5.17969 -4.19531,9.375 -9.375,9.375 h -31.25 C 474.19531,306 470,301.80469 470,296.625 v -31.25 c 0,-5.17969 4.19531,-9.375 9.375,-9.375 h 31.25 c 5.17969,0 9.375,4.19531 9.375,9.375 z"
     id="path2" />
</svg>
