<?xml version="1.0" encoding="UTF-8" standalone="no"?>
<svg
   xmlns:dc="http://purl.org/dc/elements/1.1/"
   xmlns:cc="http://creativecommons.org/ns#"
   xmlns:rdf="http://www.w3.org/1999/02/22-rdf-syntax-ns#"
   xmlns:svg="http://www.w3.org/2000/svg"
   xmlns="http://www.w3.org/2000/svg"
   xmlns:sodipodi="http://sodipodi.sourceforge.net/DTD/sodipodi-0.dtd"
   xmlns:inkscape="http://www.inkscape.org/namespaces/inkscape"
   viewBox="0 0 80 80"
   height="80"
   width="80"
   version="1.1"
   id="svg4"
   sodipodi:docname="charttype.svg"
   fill="white"
   opacity="0.8"
   stroke-width="0"
   inkscape:version="0.92.3 (2405546, 2018-03-11)">
  <metadata
     id="metadata10">
    <rdf:RDF>
      <cc:Work
         rdf:about="">
        <dc:format>image/svg+xml</dc:format>
        <dc:type
           rdf:resource="http://purl.org/dc/dcmitype/StillImage" />
        <dc:title></dc:title>
      </cc:Work>
    </rdf:RDF>
  </metadata>
  <defs
     id="defs8" />
  <sodipodi:namedview
     pagecolor="#ffffff"
     bordercolor="#666666"
     borderopacity="1"
     objecttolerance="10"
     gridtolerance="10"
     guidetolerance="10"
     inkscape:pageopacity="0"
     inkscape:pageshadow="2"
     inkscape:window-width="2560"
     inkscape:window-height="1398"
     id="namedview6"
     showgrid="false"
     inkscape:zoom="5.2149125"
     inkscape:cx="8.4576661"
     inkscape:cy="-15.676807"
     inkscape:window-x="3840"
     inkscape:window-y="20"
     inkscape:window-maximized="0"
     inkscape:current-layer="svg4" />
  <path
     inkscape:connector-curvature="0"
     d="M 51.25,17.5 A 3.75,3.75 0 0 1 55,13.75 h 7.5 a 3.75,3.75 0 0 1 3.75,3.75 v 45 h 1.874999 a 1.875,1.875 0 0 1 0,3.75 H 11.875001 a 1.875,1.875 0 0 1 0,-3.75 h 1.875 V 51.25 a 3.75,3.75 0 0 1 3.75,-3.75 h 7.5 a 3.75,3.75 0 0 1 3.75,3.75 V 62.5 h 3.75 V 36.25 a 3.75,3.75 0 0 1 3.75,-3.75 H 43.75 a 3.75,3.75 0 0 1 3.75,3.75 V 62.5 h 3.75 z"
     id="path2"
     style="stroke-width:0" />
</svg>
