<?xml version="1.0" encoding="UTF-8" standalone="no"?>
<svg
   xmlns:dc="http://purl.org/dc/elements/1.1/"
   xmlns:cc="http://creativecommons.org/ns#"
   xmlns:rdf="http://www.w3.org/1999/02/22-rdf-syntax-ns#"
   xmlns:svg="http://www.w3.org/2000/svg"
   xmlns="http://www.w3.org/2000/svg"
   xmlns:sodipodi="http://sodipodi.sourceforge.net/DTD/sodipodi-0.dtd"
   xmlns:inkscape="http://www.inkscape.org/namespaces/inkscape"
   viewBox="0 0 80 80"
   version="1.1"
   id="svg4"
   sodipodi:docname="technology.svg"
   width="80px"
   height="80px"
   fill="white"
   opacity="0.5"
   stroke-width="0"
   inkscape:version="0.92.3 (2405546, 2018-03-11)">
  <metadata
     id="metadata10">
    <rdf:RDF>
      <cc:Work
         rdf:about="">
        <dc:format>image/svg+xml</dc:format>
        <dc:type
           rdf:resource="http://purl.org/dc/dcmitype/StillImage" />
        <dc:title />
      </cc:Work>
    </rdf:RDF>
  </metadata>
  <defs
     id="defs8" />
  <sodipodi:namedview
     pagecolor="#ffffff"
     bordercolor="#666666"
     borderopacity="1"
     objecttolerance="10"
     gridtolerance="10"
     guidetolerance="10"
     inkscape:pageopacity="0"
     inkscape:pageshadow="2"
     inkscape:window-width="2560"
     inkscape:window-height="1398"
     id="namedview6"
     showgrid="false"
     inkscape:zoom="1.3037281"
     inkscape:cx="-206.42008"
     inkscape:cy="90.509668"
     inkscape:window-x="3840"
     inkscape:window-y="20"
     inkscape:window-maximized="0"
     inkscape:current-layer="svg4" />
  <path
     inkscape:connector-curvature="0"
     d="M 67.6,10 H 12.4 C 11.0725,10 10,11.0725 10,12.4 v 55.2 c 0,1.3275 1.0725,2.4 2.4,2.4 H 67.6 C 68.9275,70 70,68.9275 70,67.6 V 12.4 C 70,11.0725 68.9275,10 67.6,10 Z m -27.5175,30.4575 -14.4,12.075 C 25.2925,52.8625 24.7,52.585 24.7,52.075 v -4.7025 c 0,-0.1725 0.0825,-0.345 0.2175,-0.4575 L 33.1525,40 24.9175,33.085 A 0.57225,0.57225 0 0 1 24.7,32.6275 V 27.925 c 0,-0.51 0.5925,-0.7875 0.9825,-0.4575 l 14.4,12.0675 c 0.2925,0.24 0.2925,0.6825 0,0.9225 z M 55.3,52.075 c 0,0.33 -0.255,0.6 -0.5625,0.6 h -13.875 c -0.3075,0 -0.5625,-0.27 -0.5625,-0.6 v -3.6 c 0,-0.33 0.255,-0.6 0.5625,-0.6 h 13.875 c 0.3075,0 0.5625,0.27 0.5625,0.6 z"
     id="path2"
     style="opacity:0.5;fill:#ffffff;stroke-width:0" />
</svg>
