<svg version="1.1" xmlns="http://www.w3.org/2000/svg" viewBox="0 0 803.9589645203642 687.3094813552565" width="2411.876893561093" height="2061.9284440657693">
  <!-- svg-source:excalidraw -->
  
  <defs>
    <style>
      @font-face {
        font-family: "Virgil";
        src: url("https://excalidraw.com/Virgil.woff2");
      }
      @font-face {
        font-family: "Cascadia";
        src: url("https://excalidraw.com/Cascadia.woff2");
      }
    </style>
  </defs>
  <rect x="0" y="0" width="803.9589645203642" height="687.3094813552565" fill="#ffffff"></rect><g stroke-linecap="round" transform="translate(182.8571428571429 62.880909926685035) rotate(0 280.71428571428567 271.42857142857144)"><path d="M0.67 -0.69 C135.23 -0.16, 269.61 1.06, 562.09 -0.06 M0.39 -0.21 C126.93 -0.73, 253 -0.83, 561.78 0.31 M561.22 -0.25 C560.13 203.22, 560.38 405.66, 561.39 543.6 M561.27 0.02 C559.82 146.88, 559.72 292.92, 561.12 543.06 M561.23 542.15 C361.47 541.93, 161.62 541.97, 0.17 543.06 M561.6 543.02 C376.72 543.57, 193 543.7, 0.05 542.8 M0.67 542.93 C-2.23 397.1, -2.03 251.02, -0.06 -0.69 M0.35 542.55 C0.61 385.88, 1.03 229.09, -0.33 -0.01" stroke="#000000" stroke-width="1" fill="none"></path></g><g transform="translate(10 263.38090992668504) rotate(0 12 23)"><text x="0" y="32" font-family="Virgil, Segoe UI Emoji" font-size="36px" fill="#000000" text-anchor="start" style="white-space: pre;" direction="ltr">X</text></g><g transform="translate(409.42857142857133 631.3094813552565) rotate(0 10.5 23)"><text x="0" y="32" font-family="Virgil, Segoe UI Emoji" font-size="36px" fill="#000000" text-anchor="start" style="white-space: pre;" direction="ltr">Y</text></g><g stroke-linecap="round"><g transform="translate(91.42857142857144 315.73805278382787) rotate(0 351.11015666181623 1.4158485377473653)"><path d="M0.75 -0.7 C117.57 -0.04, 583.73 2.78, 700.37 3.54 M-0.31 1.54 C116.91 1.9, 585.3 1.69, 702.53 1.77" stroke="#000000" stroke-width="1" fill="none"></path></g><g transform="translate(91.42857142857144 315.73805278382787) rotate(0 351.11015666181623 1.4158485377473653)"><path d="M673.16 10.27 C682.79 7.81, 690.57 6.01, 702.08 0.64 M674.82 11.68 C681.99 10.03, 689.33 7.34, 702.59 1.42" stroke="#000000" stroke-width="1" fill="none"></path></g><g transform="translate(91.42857142857144 315.73805278382787) rotate(0 351.11015666181623 1.4158485377473653)"><path d="M673.17 -10.25 C682.71 -7.42, 690.49 -3.92, 702.08 0.64 M674.82 -8.84 C682.02 -4.97, 689.36 -2.13, 702.59 1.42" stroke="#000000" stroke-width="1" fill="none"></path></g></g><g stroke-linecap="round"><g transform="translate(451.42857142857133 631.4523384981136) rotate(0 -0.06903392117936846 -310.9804763913294)"><path d="M0.37 -0.51 C0.56 -103.91, 0.9 -516.12, 0.68 -619.56 M-0.89 -1.82 C-0.77 -105.67, -0.3 -518.34, 0.09 -621.45" stroke="#000000" stroke-width="1" fill="none"></path></g><g transform="translate(451.42857142857133 631.4523384981136) rotate(0 -0.06903392117936846 -310.9804763913294)"><path d="M9.44 -592.11 C8.12 -602.23, 2.73 -610.03, -0.23 -622.15 M10.48 -593.48 C8.04 -600.62, 4.8 -608.02, 0.48 -620.73" stroke="#000000" stroke-width="1" fill="none"></path></g><g transform="translate(451.42857142857133 631.4523384981136) rotate(0 -0.06903392117936846 -310.9804763913294)"><path d="M-11.08 -592.15 C-6.97 -602.33, -6.93 -610.11, -0.23 -622.15 M-10.04 -593.53 C-6.98 -600.69, -4.71 -608.07, 0.48 -620.73" stroke="#000000" stroke-width="1" fill="none"></path></g></g><g stroke-linecap="round" transform="translate(268.57142857142867 238.59519564097076) rotate(0 15.714285714285666 14.285714285714278)"><path d="M16.29 -0.32 C19.54 -0.52, 22.78 2.03, 25.24 4.12 C27.69 6.2, 30.49 9.5, 31.03 12.21 C31.57 14.92, 30.02 17.94, 28.48 20.39 C26.93 22.83, 24.69 25.61, 21.74 26.88 C18.79 28.14, 14.01 28.85, 10.78 27.99 C7.55 27.13, 4.07 24.4, 2.35 21.72 C0.64 19.04, -0.04 15.02, 0.49 11.93 C1.01 8.84, 2.69 5.03, 5.49 3.2 C8.29 1.37, 15.16 1.35, 17.29 0.94 C19.42 0.52, 18.4 0.53, 18.26 0.71 M20.95 1.13 C23.74 2.09, 26.65 6.39, 28.49 9.08 C30.33 11.78, 32.65 14.54, 31.99 17.3 C31.33 20.07, 27.24 23.92, 24.54 25.67 C21.83 27.43, 19.21 27.75, 15.76 27.82 C12.32 27.9, 6.39 28.17, 3.87 26.12 C1.35 24.06, 0.86 18.54, 0.65 15.5 C0.43 12.47, 0.84 10.24, 2.59 7.9 C4.33 5.57, 7.97 2.67, 11.1 1.51 C14.22 0.35, 19.46 0.9, 21.33 0.93 C23.21 0.96, 22.43 1.42, 22.35 1.71" stroke="#000000" stroke-width="2" fill="none"></path></g><g stroke-linecap="round" transform="translate(500 191.45233849811365) rotate(0 15.714285714285666 14.285714285714278)"><path d="M15.98 0.23 C18.93 0.23, 22.64 2.23, 25.32 4.06 C27.99 5.88, 31.28 8.3, 32.02 11.18 C32.75 14.05, 31.68 18.64, 29.75 21.29 C27.83 23.95, 23.64 26.22, 20.46 27.12 C17.28 28.02, 13.67 27.73, 10.68 26.68 C7.68 25.64, 4.27 23.39, 2.5 20.84 C0.74 18.3, -0.6 14.23, 0.09 11.43 C0.78 8.62, 3.12 5.81, 6.66 4.01 C10.2 2.21, 18.52 0.97, 21.33 0.63 C24.15 0.29, 23.83 1.75, 23.54 1.97 M20.75 0.24 C23.84 1.41, 27.4 6.47, 29.33 9.09 C31.26 11.7, 32.93 13.25, 32.34 15.92 C31.75 18.59, 28.69 22.75, 25.77 25.1 C22.86 27.44, 18.47 30, 14.86 29.99 C11.25 29.97, 6.36 27.25, 4.11 25 C1.85 22.74, 1.39 19.29, 1.33 16.45 C1.28 13.6, 1.95 10.73, 3.77 7.93 C5.59 5.14, 9.05 1.07, 12.26 -0.31 C15.47 -1.68, 21.44 -0.73, 23.04 -0.31 C24.64 0.11, 22.39 1.68, 21.87 2.22" stroke="#000000" stroke-width="2" fill="none"></path></g><g stroke-linecap="round" transform="translate(510 277.1666242123993) rotate(0 15.714285714285666 14.285714285714278)"><path d="M16.2 -0.02 C19.15 -0.54, 22.38 0.55, 24.79 2.44 C27.21 4.33, 29.79 8.29, 30.71 11.32 C31.63 14.35, 31.85 18.03, 30.31 20.63 C28.78 23.23, 24.86 25.75, 21.5 26.92 C18.14 28.08, 13.2 28.33, 10.16 27.61 C7.12 26.9, 5.07 25.13, 3.24 22.61 C1.41 20.09, -1.09 15.7, -0.81 12.51 C-0.52 9.32, 1.83 5.67, 4.95 3.48 C8.06 1.3, 15.61 -0.25, 17.89 -0.61 C20.18 -0.97, 18.79 0.83, 18.64 1.32 M23.78 -0.01 C26.58 1.38, 29.28 6.12, 30.26 9.23 C31.25 12.34, 30.64 15.94, 29.66 18.65 C28.69 21.36, 27.07 24.08, 24.41 25.5 C21.75 26.92, 17.04 27.39, 13.7 27.16 C10.36 26.93, 6.66 26.02, 4.37 24.11 C2.07 22.2, 0.37 18.64, -0.08 15.69 C-0.53 12.73, -0.18 9.14, 1.69 6.38 C3.55 3.62, 7.78 0.12, 11.11 -0.88 C14.45 -1.88, 19.79 -0.02, 21.68 0.4 C23.57 0.81, 22.57 1.41, 22.46 1.6" stroke="#000000" stroke-width="2" fill="none"></path></g><g stroke-linecap="round" transform="translate(611.4285714285713 335.73805278382787) rotate(0 15.714285714285666 14.285714285714278)"><path d="M18.16 -0.57 C21.36 -0.76, 25.62 1, 27.86 3.4 C30.09 5.8, 31.59 10.56, 31.56 13.83 C31.52 17.1, 29.68 20.7, 27.65 23.02 C25.63 25.34, 22.61 27.23, 19.42 27.77 C16.23 28.31, 11.54 27.54, 8.52 26.25 C5.5 24.95, 2.62 22.61, 1.28 20 C-0.05 17.39, -0.29 13.45, 0.51 10.57 C1.31 7.69, 2.75 4.5, 6.07 2.72 C9.4 0.95, 17.57 0.06, 20.48 -0.08 C23.39 -0.23, 23.53 1.49, 23.53 1.86 M10.8 1.69 C13.95 0.36, 18.51 -0.85, 21.9 0.23 C25.3 1.31, 29.67 5.11, 31.18 8.18 C32.69 11.24, 32.06 15.59, 30.97 18.65 C29.89 21.7, 27.65 24.98, 24.68 26.52 C21.71 28.05, 16.68 28.11, 13.17 27.84 C9.66 27.56, 5.9 27.03, 3.64 24.87 C1.38 22.72, -0.28 18.28, -0.41 14.92 C-0.53 11.56, 0.99 7.25, 2.9 4.72 C4.81 2.19, 9.64 0.21, 11.03 -0.25 C12.42 -0.72, 10.93 1.53, 11.25 1.91" stroke="#000000" stroke-width="2" fill="none"></path></g><g stroke-linecap="round" transform="translate(380.0000000000002 335.73805278382787) rotate(0 15.714285714285666 14.285714285714278)"><path d="M8.54 0.66 C11.24 -0.58, 16.13 -0.21, 19.5 0.66 C22.87 1.53, 26.93 3.18, 28.78 5.87 C30.62 8.55, 31.03 13.5, 30.57 16.77 C30.1 20.03, 28.35 23.6, 25.98 25.44 C23.62 27.28, 19.52 27.76, 16.39 27.81 C13.26 27.86, 9.85 27.35, 7.2 25.73 C4.55 24.11, 1.42 20.99, 0.49 18.08 C-0.44 15.17, -0.13 11.29, 1.61 8.28 C3.35 5.27, 8.95 1.28, 10.93 0.02 C12.91 -1.25, 13.33 0.44, 13.48 0.68 M15.31 -0.46 C18.93 -0.32, 24.53 2.26, 27.22 4.49 C29.91 6.72, 31.01 10.02, 31.44 12.92 C31.87 15.81, 31.51 19.5, 29.78 21.84 C28.06 24.18, 24.38 25.78, 21.08 26.96 C17.79 28.14, 13.1 29.94, 10.01 28.92 C6.92 27.91, 4.06 23.92, 2.53 20.88 C0.99 17.84, 0.43 13.72, 0.8 10.69 C1.16 7.66, 2.38 4.51, 4.72 2.71 C7.07 0.9, 13.16 0.35, 14.85 -0.12 C16.54 -0.59, 14.83 -0.35, 14.84 -0.11" stroke="#000000" stroke-width="2" fill="none"></path></g><g stroke-linecap="round"><g transform="translate(297.1428571428571 242.88090992668504) rotate(0 98.85553522590618 -15.487681713131522)"><path d="M0.61 -0.64 C33.73 -6.06, 165.41 -27.36, 198.24 -32.62 M-0.53 1.64 C32.44 -3.68, 163.7 -26.22, 197.12 -31.7" stroke="#000000" stroke-width="2" fill="none"></path></g></g><g stroke-linecap="round"><g transform="translate(294.2857142857142 260.02376706954215) rotate(0 113.51026378311815 15.568362611945993)"><path d="M0.95 0.32 C38.64 5.55, 189.16 25.34, 227.03 30.59 M-0.01 -0.56 C37.43 4.87, 188.03 26.65, 226.02 31.69" stroke="#000000" stroke-width="2" fill="none"></path></g></g><g stroke-linecap="round"><g transform="translate(515.7142857142858 225.73805278382787) rotate(0 2.3479200986519686 23.695367744920247)"><path d="M0.48 0.9 C1.01 8.75, 2.57 38.45, 3.26 46.08 M-0.73 0.33 C0.16 8.37, 4.65 39.15, 5.43 47.07" stroke="#000000" stroke-width="2" fill="none"></path></g></g><g stroke-linecap="round"><g transform="translate(404.2857142857142 352.88090992668504) rotate(0 55.80902635018748 -28.546192960973308)"><path d="M-0.52 0.35 C18.32 -9.08, 93.55 -47.73, 112.14 -57.44 M1.4 -0.51 C20.23 -9.68, 93.46 -46.64, 111.57 -56.06" stroke="#000000" stroke-width="2" fill="none"></path></g></g><g stroke-linecap="round"><g transform="translate(531.4285714285713 300.02376706954215) rotate(0 46.36987082822657 20.98760646302122)"><path d="M0.78 -0.2 C15.81 6.97, 75.51 35.04, 90.69 42.15 M-0.27 -1.35 C15.11 6.04, 77.74 35.83, 93.01 43.32" stroke="#000000" stroke-width="2" fill="none"></path></g></g><g stroke-linecap="round" transform="translate(265.71428571428567 187.1666242123993) rotate(0 192.14285714285717 90.71428571428572)"><path d="M-0.62 -0.18 C80.08 -1.55, 158.42 0.42, 384.72 0.34 M0.43 -0.07 C87.75 0.19, 175.03 0.26, 383.97 -0.24 M384.93 0.28 C381.15 66.66, 381.93 137.3, 382.4 179.71 M383.93 -0.51 C383.64 43.25, 383.69 84.98, 383.61 182.08 M385.47 182.55 C244.72 182.27, 103.13 182.36, -0.36 180.69 M384.13 181.88 C254.22 180.56, 124.22 180.32, -0.51 181.02 M-0.38 181.62 C0.34 114.8, -1.34 45.86, -0.14 0.74 M0.63 182.2 C-0.99 134.17, -0.75 85.01, -0.36 0.09" stroke="#000000" stroke-width="2" fill="none"></path></g><g transform="translate(178 274.1666242123993) rotate(0 44 23)"><text x="0" y="32" font-family="Virgil, Segoe UI Emoji" font-size="36px" fill="#000000" text-anchor="start" style="white-space: pre;" direction="ltr">min x</text></g><g transform="translate(656 255.59519564097076) rotate(0 53.50000000000006 23)"><text x="0" y="32" font-family="Virgil, Segoe UI Emoji" font-size="36px" fill="#000000" text-anchor="start" style="white-space: pre;" direction="ltr">max x</text></g><g transform="translate(402.2142857142858 129.8809099266851) rotate(0 52 23)"><text x="0" y="32" font-family="Virgil, Segoe UI Emoji" font-size="36px" fill="#000000" text-anchor="start" style="white-space: pre;" direction="ltr">max y</text></g><g transform="translate(409.3571428571429 377.0237670695424) rotate(0 42 23)"><text x="0" y="32" font-family="Virgil, Segoe UI Emoji" font-size="36px" fill="#000000" text-anchor="start" style="white-space: pre;" direction="ltr">min y</text></g></svg>