<svg version="1.1" xmlns="http://www.w3.org/2000/svg" viewBox="0 0 801.6732502346498 726.5237670695423" width="2405.0197507039493" height="2179.5713012086267">
  <!-- svg-source:excalidraw -->
  
  <defs>
    <style>
      @font-face {
        font-family: "Virgil";
        src: url("https://excalidraw.com/Virgil.woff2");
      }
      @font-face {
        font-family: "Cascadia";
        src: url("https://excalidraw.com/Cascadia.woff2");
      }
    </style>
  </defs>
  <rect x="0" y="0" width="801.6732502346498" height="726.5237670695423" fill="#ffffff"></rect><g stroke-linecap="round" transform="translate(93.42857142857156 87.16662421239937) rotate(0 280.71428571428567 271.42857142857144)"><path d="M0.67 -0.69 C135.23 -0.16, 269.61 1.06, 562.09 -0.06 M0.39 -0.21 C126.93 -0.73, 253 -0.83, 561.78 0.31 M561.22 -0.25 C560.13 203.22, 560.38 405.66, 561.39 543.6 M561.27 0.02 C559.82 146.88, 559.72 292.92, 561.12 543.06 M561.23 542.15 C361.47 541.93, 161.62 541.97, 0.17 543.06 M561.6 543.02 C376.72 543.57, 193 543.7, 0.05 542.8 M0.67 542.93 C-2.23 397.1, -2.03 251.02, -0.06 -0.69 M0.35 542.55 C0.61 385.88, 1.03 229.09, -0.33 -0.01" stroke="#000000" stroke-width="1" fill="none"></path></g><g transform="translate(379.14285714285757 670.5237670695423) rotate(0 12 23)"><text x="0" y="32" font-family="Virgil, Segoe UI Emoji" font-size="36px" fill="#000000" text-anchor="start" style="white-space: pre;" direction="ltr">X</text></g><g transform="translate(10 308.4523384981137) rotate(0 10.5 23)"><text x="0" y="32" font-family="Virgil, Segoe UI Emoji" font-size="36px" fill="#000000" text-anchor="start" style="white-space: pre;" direction="ltr">Y</text></g><g stroke-linecap="round"><g transform="translate(89.142857142857 631.4523384981136) rotate(0 351.11015666181623 1.4158485377473653)"><path d="M0.75 -0.7 C117.57 -0.04, 583.73 2.78, 700.37 3.54 M-0.31 1.54 C116.91 1.9, 585.3 1.69, 702.53 1.77" stroke="#000000" stroke-width="1" fill="none"></path></g><g transform="translate(89.142857142857 631.4523384981136) rotate(0 351.11015666181623 1.4158485377473653)"><path d="M673.16 10.27 C682.79 7.81, 690.57 6.01, 702.08 0.64 M674.82 11.68 C681.99 10.03, 689.33 7.34, 702.59 1.42" stroke="#000000" stroke-width="1" fill="none"></path></g><g transform="translate(89.142857142857 631.4523384981136) rotate(0 351.11015666181623 1.4158485377473653)"><path d="M673.17 -10.25 C682.71 -7.42, 690.49 -3.92, 702.08 0.64 M674.82 -8.84 C682.02 -4.97, 689.36 -2.13, 702.59 1.42" stroke="#000000" stroke-width="1" fill="none"></path></g></g><g stroke-linecap="round"><g transform="translate(91.99999999999994 631.4523384981136) rotate(0 -0.06903392117931162 -310.9804763913294)"><path d="M0.37 -0.51 C0.56 -103.91, 0.9 -516.12, 0.68 -619.56 M-0.89 -1.82 C-0.77 -105.67, -0.3 -518.34, 0.09 -621.45" stroke="#000000" stroke-width="1" fill="none"></path></g><g transform="translate(91.99999999999994 631.4523384981136) rotate(0 -0.06903392117931162 -310.9804763913294)"><path d="M9.44 -592.11 C8.12 -602.23, 2.73 -610.03, -0.23 -622.15 M10.48 -593.48 C8.04 -600.62, 4.8 -608.02, 0.48 -620.73" stroke="#000000" stroke-width="1" fill="none"></path></g><g transform="translate(91.99999999999994 631.4523384981136) rotate(0 -0.06903392117931162 -310.9804763913294)"><path d="M-11.08 -592.15 C-6.97 -602.33, -6.93 -610.11, -0.23 -622.15 M-10.04 -593.53 C-6.98 -600.69, -4.71 -608.07, 0.48 -620.73" stroke="#000000" stroke-width="1" fill="none"></path></g></g><g stroke-linecap="round" transform="translate(99.142857142857 282.7426066714988) rotate(0 24.044526901669684 21.85866081969977)"><path d="M24.53 -0.32 C29.47 -0.64, 35.01 2.72, 38.85 5.83 C42.69 8.95, 46.68 14.08, 47.55 18.38 C48.41 22.69, 46.49 27.81, 44.07 31.67 C41.64 35.53, 37.63 39.7, 33.01 41.54 C28.39 43.38, 21.26 44.11, 16.35 42.71 C11.43 41.31, 6.14 37.23, 3.51 33.15 C0.89 29.08, -0.21 22.96, 0.6 18.27 C1.41 13.58, 4.15 7.92, 8.4 5.03 C12.64 2.14, 22.86 1.63, 26.05 0.95 C29.24 0.26, 27.67 0.61, 27.53 0.91 M32.54 1.73 C36.94 3.21, 41.6 9.08, 44.25 13.23 C46.9 17.37, 49.5 22.24, 48.44 26.59 C47.38 30.93, 42.01 36.57, 37.87 39.3 C33.74 42.03, 28.88 42.97, 23.65 42.96 C18.42 42.95, 10.34 42.38, 6.51 39.22 C2.69 36.06, 1.14 28.64, 0.71 23.99 C0.28 19.35, 1.22 15.04, 3.93 11.35 C6.65 7.65, 12.17 3.47, 17 1.84 C21.83 0.2, 30.11 1.43, 32.93 1.54 C35.74 1.64, 34.01 2.05, 33.88 2.45" stroke="#000000" stroke-width="2" fill="none"></path></g><g stroke-linecap="round" transform="translate(431.3945016022934 217.16662421239954) rotate(0 24.044526901669713 21.858660819699764)"><path d="M24.5 0.24 C29.15 0.17, 35.13 3.05, 39.15 5.94 C43.16 8.84, 47.57 13.13, 48.58 17.61 C49.59 22.08, 48.05 28.76, 45.2 32.8 C42.35 36.85, 36.33 40.45, 31.46 41.87 C26.59 43.28, 20.63 42.95, 15.98 41.31 C11.32 39.68, 6.15 36.02, 3.52 32.05 C0.9 28.09, -0.79 21.91, 0.25 17.51 C1.29 13.12, 4.46 8.43, 9.78 5.67 C15.1 2.91, 27.73 1.36, 32.16 0.98 C36.6 0.59, 36.73 3.02, 36.39 3.36 M32.27 0.81 C36.97 2.49, 42.29 9.11, 45.05 13.17 C47.8 17.22, 49.78 20.89, 48.8 25.14 C47.82 29.39, 43.5 35.35, 39.17 38.68 C34.84 42.01, 28.21 45.21, 22.82 45.12 C17.42 45.03, 10.37 41.5, 6.8 38.15 C3.23 34.8, 1.69 29.45, 1.4 25 C1.12 20.55, 2.3 15.59, 5.08 11.43 C7.86 7.27, 13.18 1.9, 18.09 0.04 C23 -1.82, 32.02 -0.22, 34.56 0.27 C37.1 0.75, 33.9 2.28, 33.33 2.94" stroke="#000000" stroke-width="2" fill="none"></path></g><g stroke-linecap="round" transform="translate(446.6955641760834 348.3185891305982) rotate(0 24.044526901669713 21.85866081969977)"><path d="M24.31 -0.02 C28.95 -0.67, 34.49 1.19, 38.31 4.09 C42.12 6.99, 45.93 12.76, 47.2 17.39 C48.48 22.01, 48.35 27.79, 45.97 31.81 C43.58 35.84, 37.9 39.77, 32.88 41.53 C27.86 43.29, 20.59 43.6, 15.85 42.37 C11.11 41.14, 7.23 38.04, 4.47 34.14 C1.71 30.24, -1.26 23.76, -0.72 18.97 C-0.17 14.17, 3.16 8.64, 7.75 5.39 C12.35 2.13, 23.43 0.04, 26.88 -0.59 C30.33 -1.22, 28.61 0.98, 28.46 1.6 M35.69 0.73 C40.07 2.69, 44.45 9.07, 46.17 13.66 C47.9 18.24, 47.47 23.97, 46.02 28.25 C44.57 32.52, 41.59 36.98, 37.46 39.32 C33.33 41.66, 26.35 42.66, 21.23 42.27 C16.11 41.89, 10.3 40.06, 6.76 36.99 C3.21 33.92, 0.53 28.43, -0.05 23.85 C-0.64 19.28, 0.33 13.64, 3.24 9.56 C6.14 5.48, 12.3 0.76, 17.36 -0.64 C22.42 -2.04, 30.77 0.62, 33.6 1.13 C36.42 1.65, 34.47 2.17, 34.3 2.47" stroke="#000000" stroke-width="2" fill="none"></path></g><g stroke-linecap="round" transform="translate(601.8920559959516 437.9390984913673) rotate(0 24.044526901669713 21.85866081969977)"><path d="M27.34 -0.53 C32.24 -0.66, 38.69 2.14, 42.17 5.7 C45.64 9.27, 48.1 15.97, 48.19 20.86 C48.29 25.75, 45.8 31.39, 42.73 35.03 C39.67 38.67, 34.7 41.75, 29.78 42.69 C24.86 43.62, 17.84 42.63, 13.22 40.63 C8.59 38.63, 4.07 34.77, 2.01 30.67 C-0.06 26.58, -0.46 20.51, 0.83 16.07 C2.12 11.63, 4.61 6.65, 9.73 4.03 C14.85 1.41, 27.14 0.48, 31.57 0.34 C35.99 0.2, 36.33 2.71, 36.29 3.2 M16.97 1.95 C21.73 0.12, 28.73 -0.83, 33.75 0.94 C38.76 2.7, 44.79 8, 47.06 12.54 C49.32 17.08, 48.9 23.55, 47.35 28.17 C45.81 32.8, 42.22 37.83, 37.79 40.29 C33.37 42.75, 26.06 43.37, 20.78 42.96 C15.49 42.54, 9.61 41.1, 6.08 37.8 C2.56 34.5, -0.1 28.14, -0.37 23.16 C-0.65 18.18, 1.48 11.81, 4.41 7.95 C7.33 4.09, 15.03 0.94, 17.2 0 C19.38 -0.93, 17.1 1.81, 17.47 2.32" stroke="#000000" stroke-width="2" fill="none"></path></g><g stroke-linecap="round" transform="translate(247.78175071681574 437.9390984913673) rotate(0 24.044526901669713 21.85866081969977)"><path d="M13.55 1.29 C17.76 -0.66, 25.11 -0.36, 30.19 0.97 C35.27 2.3, 41.22 5.22, 44.05 9.25 C46.88 13.29, 47.84 20.32, 47.18 25.19 C46.51 30.07, 43.71 35.54, 40.05 38.5 C36.4 41.46, 30.15 42.79, 25.24 42.94 C20.32 43.09, 14.66 41.98, 10.58 39.4 C6.49 36.81, 2.07 31.91, 0.72 27.43 C-0.63 22.94, -0.25 17, 2.48 12.48 C5.22 7.95, 14.06 2.2, 17.14 0.27 C20.22 -1.67, 20.79 0.51, 20.97 0.87 M23.82 -0.46 C29.14 -0.39, 37.01 3.07, 41.04 6.37 C45.07 9.67, 47.3 14.84, 48 19.33 C48.7 23.83, 47.89 29.61, 45.24 33.34 C42.58 37.07, 37.08 40.01, 32.09 41.71 C27.11 43.41, 20.08 45.16, 15.33 43.56 C10.57 41.95, 5.95 36.56, 3.55 32.1 C1.16 27.64, 0.24 21.41, 0.96 16.79 C1.67 12.17, 4.11 7.19, 7.84 4.38 C11.57 1.56, 20.77 0.6, 23.36 -0.12 C25.94 -0.84, 23.34 -0.32, 23.35 0.04" stroke="#000000" stroke-width="2" fill="none"></path></g><g stroke-linecap="round"><g transform="translate(121.00151796255648 295.8578031633187) rotate(0 151.4875136371054 -23.817922900515583)"><path d="M0.61 -0.64 C51.27 -8.84, 253.13 -41.24, 303.5 -49.28 M-0.53 1.64 C49.99 -6.46, 251.42 -40.1, 302.38 -48.36" stroke="#000000" stroke-width="2" fill="none"></path></g></g><g stroke-linecap="round"><g transform="translate(116.62978579861647 322.0881961469584) rotate(0 173.71518872830282 23.898603799330047)"><path d="M0.95 0.32 C58.71 8.32, 289.5 39.23, 347.44 47.25 M-0.01 -0.56 C57.5 7.65, 288.38 40.54, 346.43 48.35" stroke="#000000" stroke-width="2" fill="none"></path></g></g><g stroke-linecap="round"><g transform="translate(455.4390285039634 269.6274101796789) rotate(0 3.4838620787497803 36.190729525996325)"><path d="M0.48 0.9 C1.39 12.91, 4.47 59.27, 5.53 71.07 M-0.73 0.33 C0.53 12.54, 6.54 59.98, 7.7 72.06" stroke="#000000" stroke-width="2" fill="none"></path></g></g><g stroke-linecap="round"><g transform="translate(284.94147411030485 464.169491475007) rotate(0 85.34351783273098 -43.69208602894431)"><path d="M-0.52 0.35 C28.16 -14.12, 142.78 -72.97, 171.21 -87.73 M1.4 -0.51 C30.07 -14.73, 142.69 -71.88, 170.64 -86.35" stroke="#000000" stroke-width="2" fill="none"></path></g></g><g stroke-linecap="round"><g transform="translate(479.48355540563296 383.2924464421178) rotate(0 70.6032997369802 32.34702626399946)"><path d="M0.78 -0.2 C23.89 10.76, 115.9 53.98, 139.15 64.87 M-0.27 -1.35 C23.19 9.83, 118.13 54.77, 141.48 66.04" stroke="#000000" stroke-width="2" fill="none"></path></g></g><g transform="translate(58.571428571428555 638.4523384981136) rotate(0 13.5 23)"><text x="0" y="32" font-family="Virgil, Segoe UI Emoji" font-size="36px" fill="#000000" text-anchor="start" style="white-space: pre;" direction="ltr">0</text></g><g transform="translate(649.9285714285717 647.0237670695421) rotate(0 6 23)"><text x="0" y="32" font-family="Virgil, Segoe UI Emoji" font-size="36px" fill="#000000" text-anchor="start" style="white-space: pre;" direction="ltr">1</text></g><g transform="translate(58.857142857142776 65.59519564097081) rotate(0 6 23)"><text x="0" y="32" font-family="Virgil, Segoe UI Emoji" font-size="36px" fill="#000000" text-anchor="start" style="white-space: pre;" direction="ltr">1</text></g></svg>