<svg version="1.1" xmlns="http://www.w3.org/2000/svg" viewBox="0 0 867.4999999999997 599.9394991807638" width="2602.499999999999" height="1799.8184975422914">
  <!-- svg-source:excalidraw -->
  
  <defs>
    <style>
      @font-face {
        font-family: "Virgil";
        src: url("https://excalidraw.com/Virgil.woff2");
      }
      @font-face {
        font-family: "Cascadia";
        src: url("https://excalidraw.com/Cascadia.woff2");
      }
    </style>
  </defs>
  <rect x="0" y="0" width="867.4999999999997" height="599.9394991807638" fill="#ffffff"></rect><g stroke-linecap="round" transform="translate(139.21428571428555 75.21428571428578) rotate(0 335.7142857142857 225)"><path d="M0.67 -0.69 C161.6 -0.07, 322.36 1.14, 672.09 -0.06 M0.39 -0.21 C151.75 -0.85, 302.63 -0.95, 671.78 0.31 M671.18 -0.3 C670.08 168.54, 670.37 336.12, 671.38 450.89 M671.24 0.03 C669.8 121.84, 669.68 242.68, 671.05 450.25 M671.23 449.29 C432.32 448.87, 193.31 448.91, 0.17 450.2 M671.6 450.16 C450.59 450.92, 230.74 451.05, 0.05 449.94 M0.81 450.08 C-2.36 329.11, -2.12 207.84, -0.08 -0.83 M0.43 449.63 C0.58 319.81, 1.1 189.83, -0.4 -0.02" stroke="#000000" stroke-width="1" fill="none"></path></g><g transform="translate(390.64285714285734 10) rotate(0 12 23)"><text x="0" y="32" font-family="Virgil, Segoe UI Emoji" font-size="36px" fill="#000000" text-anchor="start" style="white-space: pre;" direction="ltr">X</text></g><g transform="translate(55.78571428571399 296.5000000000001) rotate(0 10.5 23)"><text x="0" y="32" font-family="Virgil, Segoe UI Emoji" font-size="36px" fill="#000000" text-anchor="start" style="white-space: pre;" direction="ltr">Y</text></g><g stroke-linecap="round"><g transform="translate(811.689368770764 77.21615121101888) rotate(0 14.872615133576687 0.4175344734381383)"><path d="M0.75 -0.7 C5.49 -0.37, 23.34 1.11, 27.9 1.53 M-0.31 1.54 C4.83 1.57, 24.91 0.02, 30.06 -0.23" stroke="#000000" stroke-width="1" fill="none"></path></g><g transform="translate(811.689368770764 77.21615121101888) rotate(0 14.872615133576687 0.4175344734381383)"><path d="M15.94 4.3 C21.05 2.98, 24.85 2.1, 29.73 -1.05 M17.14 5.33 C20.41 4.59, 23.8 3.08, 30.09 -0.49" stroke="#000000" stroke-width="1" fill="none"></path></g><g transform="translate(811.689368770764 77.21615121101888) rotate(0 14.872615133576687 0.4175344734381383)"><path d="M15.31 -5.58 C20.55 -4.36, 24.5 -2.69, 29.73 -1.05 M16.51 -4.56 C19.96 -2.64, 23.52 -1.49, 30.09 -0.49" stroke="#000000" stroke-width="1" fill="none"></path></g></g><g stroke-linecap="round"><g transform="translate(139.21428571428567 76.64285714285711) rotate(0 -0.4977981124601172 255.73770065431808)"><path d="M0.37 -0.51 C0.32 84.9, -0.29 427.93, -0.75 513.3 M-0.89 -1.82 C-1 83.14, -1.49 425.7, -1.34 511.4" stroke="#000000" stroke-width="1" fill="none"></path></g><g transform="translate(139.21428571428567 76.64285714285711) rotate(0 -0.4977981124601172 255.73770065431808)"><path d="M-12.45 484.35 C-7.95 489.09, -7.92 496.22, -1.66 510.71 M-11.41 482.97 C-8.26 490.93, -6.01 498.66, -0.95 512.13" stroke="#000000" stroke-width="1" fill="none"></path></g><g transform="translate(139.21428571428567 76.64285714285711) rotate(0 -0.4977981124601172 255.73770065431808)"><path d="M8.07 484.35 C7.14 489.15, 1.74 496.29, -1.66 510.71 M9.12 482.97 C6.75 490.96, 3.5 498.69, -0.95 512.13" stroke="#000000" stroke-width="1" fill="none"></path></g></g><g stroke-linecap="round" transform="translate(162.0714285714281 221.64060830943959) rotate(0 26.975365903937245 24.523059912670277)"><path d="M27.43 -0.32 C32.96 -0.68, 39.32 2.96, 43.64 6.44 C47.96 9.92, 52.37 15.69, 53.36 20.56 C54.34 25.42, 52.28 31.29, 49.55 35.64 C46.82 40, 42.18 44.65, 36.97 46.69 C31.77 48.74, 23.82 49.47, 18.31 47.89 C12.8 46.3, 6.87 41.74, 3.92 37.17 C0.98 32.61, -0.28 25.75, 0.64 20.5 C1.55 15.25, 4.67 8.93, 9.42 5.67 C14.17 2.41, 25.57 1.73, 29.13 0.95 C32.69 0.17, 30.94 0.63, 30.79 0.98 M36.62 1.95 C41.58 3.61, 46.86 10.03, 49.79 14.68 C52.72 19.33, 55.43 24.95, 54.22 29.85 C53.02 34.75, 47.2 41.02, 42.57 44.09 C37.93 47.17, 32.28 48.33, 26.42 48.28 C20.57 48.24, 11.72 47.38, 7.44 43.83 C3.16 40.28, 1.23 32.19, 0.73 26.98 C0.22 21.77, 1.35 16.73, 4.41 12.56 C7.47 8.39, 13.65 3.76, 19.08 1.96 C24.51 0.15, 33.86 1.62, 37.01 1.75 C40.15 1.87, 38.08 2.27, 37.94 2.71" stroke="#000000" stroke-width="2" fill="none"></path></g><g stroke-linecap="round" transform="translate(534.8219392440161 148.07142857142884) rotate(0 26.975365903937245 24.523059912670277)"><path d="M27.5 0.24 C32.75 0.15, 39.53 3.33, 44.01 6.61 C48.5 9.88, 53.31 14.83, 54.41 19.87 C55.51 24.91, 53.81 32.32, 50.63 36.85 C47.45 41.38, 40.8 45.45, 35.33 47.06 C29.86 48.66, 23.08 48.3, 17.84 46.46 C12.6 44.62, 6.81 40.46, 3.88 36 C0.96 31.53, -0.86 24.61, 0.31 19.66 C1.47 14.7, 4.94 9.35, 10.88 6.25 C16.83 3.16, 30.97 1.5, 35.97 1.1 C40.98 0.7, 41.26 3.47, 40.91 3.85 M36.33 1.02 C41.59 2.87, 47.54 10.04, 50.58 14.6 C53.63 19.17, 55.71 23.57, 54.59 28.38 C53.48 33.19, 48.71 39.78, 43.88 43.46 C39.05 47.14, 31.64 50.56, 25.62 50.45 C19.6 50.34, 11.78 46.52, 7.75 42.78 C3.72 39.04, 1.8 33.03, 1.43 28.01 C1.06 22.99, 2.42 17.31, 5.54 12.66 C8.66 8.02, 14.63 2.19, 20.14 0.16 C25.65 -1.87, 35.75 -0.03, 38.62 0.47 C41.49 0.98, 37.95 2.49, 37.36 3.19" stroke="#000000" stroke-width="2" fill="none"></path></g><g stroke-linecap="round" transform="translate(551.9880811828856 295.2097880474505) rotate(0 26.975365903937245 24.523059912670277)"><path d="M27.17 -0.02 C32.4 -0.72, 38.76 1.41, 43.06 4.67 C47.37 7.92, 51.6 14.34, 53.01 19.52 C54.41 24.7, 54.16 31.22, 51.47 35.75 C48.79 40.27, 42.49 44.71, 36.89 46.68 C31.29 48.65, 23.18 48.97, 17.85 47.56 C12.52 46.15, 7.99 42.59, 4.9 38.2 C1.81 33.81, -1.32 26.6, -0.68 21.24 C-0.04 15.88, 3.62 9.69, 8.74 6.05 C13.86 2.42, 26.17 0.15, 30.04 -0.58 C33.9 -1.31, 32.07 1.03, 31.91 1.69 M39.88 0.99 C44.82 3.16, 49.79 10.11, 51.77 15.22 C53.75 20.32, 53.4 26.8, 51.78 31.62 C50.16 36.45, 46.7 41.52, 42.05 44.18 C37.4 46.84, 29.62 48.03, 23.88 47.59 C18.14 47.15, 11.58 45, 7.6 41.52 C3.61 38.05, 0.59 31.87, -0.04 26.73 C-0.68 21.59, 0.51 15.22, 3.78 10.68 C7.05 6.13, 13.89 0.99, 19.55 -0.55 C25.22 -2.1, 34.64 0.84, 37.79 1.39 C40.94 1.95, 38.66 2.44, 38.47 2.78" stroke="#000000" stroke-width="2" fill="none"></path></g><g stroke-linecap="round" transform="translate(726.1018065628442 395.75433368939866) rotate(0 26.975365903937245 24.523059912670277)"><path d="M30.57 -0.52 C36.06 -0.62, 43.29 2.54, 47.2 6.51 C51.11 10.48, 53.91 17.87, 54.05 23.33 C54.19 28.79, 51.48 35.15, 48.04 39.26 C44.6 43.36, 38.96 46.86, 33.43 47.93 C27.9 49.01, 20.06 47.95, 14.87 45.69 C9.67 43.44, 4.59 39.04, 2.27 34.43 C-0.06 29.81, -0.52 23, 0.94 18.01 C2.4 13.02, 5.26 7.41, 11.02 4.49 C16.77 1.57, 30.51 0.63, 35.47 0.49 C40.43 0.36, 40.84 3.14, 40.78 3.67 M19.14 2.04 C24.47 0.04, 32.33 -0.82, 37.92 1.19 C43.5 3.19, 50.11 9.02, 52.64 14.08 C55.18 19.14, 54.82 26.35, 53.11 31.53 C51.41 36.7, 47.35 42.34, 42.41 45.14 C37.46 47.93, 29.37 48.74, 23.45 48.27 C17.54 47.81, 10.91 46.06, 6.94 42.35 C2.97 38.65, -0.03 31.6, -0.36 26.06 C-0.7 20.51, 1.64 13.41, 4.93 9.09 C8.22 4.76, 16.92 1.2, 19.37 0.1 C21.83 -1.01, 19.28 1.91, 19.65 2.46" stroke="#000000" stroke-width="2" fill="none"></path></g><g stroke-linecap="round" transform="translate(328.82823597758636 395.75433368939866) rotate(0 26.975365903937245 24.523059912670277)"><path d="M15.31 1.51 C20.05 -0.68, 28.26 -0.41, 33.95 1.08 C39.64 2.57, 46.24 5.93, 49.42 10.44 C52.6 14.96, 53.76 22.71, 53.02 28.15 C52.28 33.6, 49.12 39.75, 45 43.1 C40.89 46.45, 33.89 48.08, 28.35 48.26 C22.81 48.45, 16.36 47.13, 11.77 44.21 C7.18 41.28, 2.3 35.76, 0.8 30.72 C-0.69 25.67, -0.3 19.02, 2.79 13.96 C5.88 8.9, 15.86 2.52, 19.32 0.35 C22.79 -1.82, 23.41 0.54, 23.6 0.94 M26.81 -0.46 C32.73 -0.41, 41.4 3.36, 45.9 7.03 C50.41 10.71, 53.03 16.53, 53.83 21.59 C54.62 26.65, 53.65 33.17, 50.67 37.39 C47.7 41.61, 41.55 45.01, 35.97 46.89 C30.39 48.78, 22.54 50.51, 17.19 48.7 C11.85 46.9, 6.61 41.01, 3.92 36.05 C1.22 31.09, 0.18 24.12, 1.01 18.94 C1.85 13.76, 4.71 8.14, 8.93 4.96 C13.16 1.79, 23.45 0.69, 26.35 -0.12 C29.25 -0.93, 26.34 -0.31, 26.34 0.1" stroke="#000000" stroke-width="2" fill="none"></path></g><g stroke-linecap="round"><g transform="translate(186.59448848409806 236.3544442570418) rotate(0 170.0050873332504 -26.748761902783144)"><path d="M0.61 -0.64 C57.45 -9.82, 283.99 -46.13, 340.54 -55.14 M-0.53 1.64 C56.16 -7.43, 282.29 -44.98, 339.42 -54.23" stroke="#000000" stroke-width="2" fill="none"></path></g></g><g stroke-linecap="round"><g transform="translate(181.6898765015639 265.78211615224615) rotate(0 194.89716151741834 26.829442801597608)"><path d="M0.95 0.32 C65.77 9.3, 324.81 44.11, 389.8 53.12 M-0.01 -0.56 C64.56 8.62, 323.68 45.42, 388.79 54.22" stroke="#000000" stroke-width="2" fill="none"></path></g></g><g stroke-linecap="round"><g transform="translate(561.7973051479538 206.92677236183744) rotate(0 3.8835219426953245 40.58698802939766)"><path d="M0.48 0.9 C1.52 14.38, 5.13 66.6, 6.33 79.87 M-0.73 0.33 C0.67 14, 7.21 67.31, 8.5 80.85" stroke="#000000" stroke-width="2" fill="none"></path></g></g><g stroke-linecap="round"><g transform="translate(370.51743782912524 425.182005584603) rotate(0 95.73467429531598 -49.02088421488532)"><path d="M-0.52 0.35 C31.63 -15.9, 160.09 -81.85, 191.99 -98.39 M1.4 -0.51 C33.53 -16.51, 160.01 -80.77, 191.42 -97.01" stroke="#000000" stroke-width="2" fill="none"></path></g></g><g stroke-linecap="round"><g transform="translate(588.7726710518908 334.4466839077229) rotate(0 79.12937683448581 36.34362490345522)"><path d="M0.78 -0.2 C26.73 12.09, 130.11 60.64, 156.21 72.86 M-0.27 -1.35 C26.03 11.16, 132.34 61.43, 158.53 74.03" stroke="#000000" stroke-width="2" fill="none"></path></g></g><g transform="translate(97.21428571428532 35.07142857142867) rotate(0 13.5 23)"><text x="0" y="32" font-family="Virgil, Segoe UI Emoji" font-size="36px" fill="#000000" text-anchor="start" style="white-space: pre;" direction="ltr">0</text></g><g transform="translate(10 505.07142857142867) rotate(0 52 23)"><text x="0" y="32" font-family="Virgil, Segoe UI Emoji" font-size="36px" fill="#000000" text-anchor="start" style="white-space: pre;" direction="ltr">height</text></g><g transform="translate(767.4999999999997 12.214285714285722) rotate(0 45 23)"><text x="0" y="32" font-family="Virgil, Segoe UI Emoji" font-size="36px" fill="#000000" text-anchor="start" style="white-space: pre;" direction="ltr">width</text></g></svg>