<svg version="1.1" xmlns="http://www.w3.org/2000/svg" viewBox="0 0 803.9589645203642 687.3094813552565" width="2411.876893561093" height="2061.9284440657693">
  <!-- svg-source:excalidraw -->
  
  <defs>
    <style>
      @font-face {
        font-family: "Virgil";
        src: url("https://excalidraw.com/Virgil.woff2");
      }
      @font-face {
        font-family: "Cascadia";
        src: url("https://excalidraw.com/Cascadia.woff2");
      }
    </style>
  </defs>
  <rect x="0" y="0" width="803.9589645203642" height="687.3094813552565" fill="#ffffff"></rect><g stroke-linecap="round" transform="translate(182.8571428571429 62.880909926685035) rotate(0 280.71428571428567 271.42857142857144)"><path d="M0.67 -0.69 C135.23 -0.16, 269.61 1.06, 562.09 -0.06 M0.39 -0.21 C126.93 -0.73, 253 -0.83, 561.78 0.31 M561.22 -0.25 C560.13 203.22, 560.38 405.66, 561.39 543.6 M561.27 0.02 C559.82 146.88, 559.72 292.92, 561.12 543.06 M561.23 542.15 C361.47 541.93, 161.62 541.97, 0.17 543.06 M561.6 543.02 C376.72 543.57, 193 543.7, 0.05 542.8 M0.67 542.93 C-2.23 397.1, -2.03 251.02, -0.06 -0.69 M0.35 542.55 C0.61 385.88, 1.03 229.09, -0.33 -0.01" stroke="#000000" stroke-width="1" fill="none"></path></g><g transform="translate(10 263.38090992668504) rotate(0 12 23)"><text x="0" y="32" font-family="Virgil, Segoe UI Emoji" font-size="36px" fill="#000000" text-anchor="start" style="white-space: pre;" direction="ltr">X</text></g><g transform="translate(409.42857142857133 631.3094813552565) rotate(0 10.5 23)"><text x="0" y="32" font-family="Virgil, Segoe UI Emoji" font-size="36px" fill="#000000" text-anchor="start" style="white-space: pre;" direction="ltr">Y</text></g><g stroke-linecap="round"><g transform="translate(91.42857142857144 315.73805278382787) rotate(0 351.11015666181623 1.4158485377473653)"><path d="M0.75 -0.7 C117.57 -0.04, 583.73 2.78, 700.37 3.54 M-0.31 1.54 C116.91 1.9, 585.3 1.69, 702.53 1.77" stroke="#000000" stroke-width="1" fill="none"></path></g><g transform="translate(91.42857142857144 315.73805278382787) rotate(0 351.11015666181623 1.4158485377473653)"><path d="M673.16 10.27 C682.79 7.81, 690.57 6.01, 702.08 0.64 M674.82 11.68 C681.99 10.03, 689.33 7.34, 702.59 1.42" stroke="#000000" stroke-width="1" fill="none"></path></g><g transform="translate(91.42857142857144 315.73805278382787) rotate(0 351.11015666181623 1.4158485377473653)"><path d="M673.17 -10.25 C682.71 -7.42, 690.49 -3.92, 702.08 0.64 M674.82 -8.84 C682.02 -4.97, 689.36 -2.13, 702.59 1.42" stroke="#000000" stroke-width="1" fill="none"></path></g></g><g stroke-linecap="round"><g transform="translate(451.42857142857133 631.4523384981136) rotate(0 -0.06903392117936846 -310.9804763913294)"><path d="M0.37 -0.51 C0.56 -103.91, 0.9 -516.12, 0.68 -619.56 M-0.89 -1.82 C-0.77 -105.67, -0.3 -518.34, 0.09 -621.45" stroke="#000000" stroke-width="1" fill="none"></path></g><g transform="translate(451.42857142857133 631.4523384981136) rotate(0 -0.06903392117936846 -310.9804763913294)"><path d="M9.44 -592.11 C8.12 -602.23, 2.73 -610.03, -0.23 -622.15 M10.48 -593.48 C8.04 -600.62, 4.8 -608.02, 0.48 -620.73" stroke="#000000" stroke-width="1" fill="none"></path></g><g transform="translate(451.42857142857133 631.4523384981136) rotate(0 -0.06903392117936846 -310.9804763913294)"><path d="M-11.08 -592.15 C-6.97 -602.33, -6.93 -610.11, -0.23 -622.15 M-10.04 -593.53 C-6.98 -600.69, -4.71 -608.07, 0.48 -620.73" stroke="#000000" stroke-width="1" fill="none"></path></g></g><g stroke-linecap="round" transform="translate(270 187.1666242123993) rotate(0 15.714285714285666 14.285714285714278)"><path d="M16.29 -0.32 C19.54 -0.52, 22.78 2.03, 25.24 4.12 C27.69 6.2, 30.49 9.5, 31.03 12.21 C31.57 14.92, 30.02 17.94, 28.48 20.39 C26.93 22.83, 24.69 25.61, 21.74 26.88 C18.79 28.14, 14.01 28.85, 10.78 27.99 C7.55 27.13, 4.07 24.4, 2.35 21.72 C0.64 19.04, -0.04 15.02, 0.49 11.93 C1.01 8.84, 2.69 5.03, 5.49 3.2 C8.29 1.37, 15.16 1.35, 17.29 0.94 C19.42 0.52, 18.4 0.53, 18.26 0.71 M20.95 1.13 C23.74 2.09, 26.65 6.39, 28.49 9.08 C30.33 11.78, 32.65 14.54, 31.99 17.3 C31.33 20.07, 27.24 23.92, 24.54 25.67 C21.83 27.43, 19.21 27.75, 15.76 27.82 C12.32 27.9, 6.39 28.17, 3.87 26.12 C1.35 24.06, 0.86 18.54, 0.65 15.5 C0.43 12.47, 0.84 10.24, 2.59 7.9 C4.33 5.57, 7.97 2.67, 11.1 1.51 C14.22 0.35, 19.46 0.9, 21.33 0.93 C23.21 0.96, 22.43 1.42, 22.35 1.71" stroke="#000000" stroke-width="2" fill="none"></path></g><g stroke-linecap="round" transform="translate(547.1428571428571 140.0237670695422) rotate(0 15.714285714285666 14.285714285714278)"><path d="M17.66 0.9 C21.01 1.25, 25.96 3.36, 28.31 5.51 C30.66 7.66, 31.69 10.72, 31.75 13.79 C31.82 16.85, 30.8 21.33, 28.68 23.88 C26.57 26.44, 22.58 28.63, 19.09 29.13 C15.59 29.63, 10.85 28.33, 7.73 26.89 C4.6 25.45, 1.38 23.35, 0.32 20.49 C-0.73 17.63, 0.31 12.79, 1.42 9.73 C2.52 6.68, 3.7 3.75, 6.97 2.15 C10.24 0.56, 18.52 0.08, 21.02 0.17 C23.52 0.27, 22.06 2.48, 21.95 2.73 M16.82 -0.53 C19.75 -0.57, 23.32 2.05, 25.77 4.08 C28.22 6.1, 30.92 8.84, 31.53 11.63 C32.13 14.42, 31.18 18.17, 29.39 20.84 C27.61 23.51, 23.86 26.51, 20.83 27.65 C17.81 28.78, 14.16 28.81, 11.27 27.64 C8.37 26.47, 5.43 23.41, 3.45 20.64 C1.46 17.87, -1.01 13.86, -0.65 10.99 C-0.29 8.12, 2.77 5.06, 5.59 3.43 C8.41 1.81, 14.3 1.56, 16.26 1.25 C18.22 0.94, 17.38 1.74, 17.34 1.57" stroke="#000000" stroke-width="2" fill="none"></path></g><g stroke-linecap="round" transform="translate(357.1428571428571 405.73805278382787) rotate(0 15.714285714285666 14.285714285714278)"><path d="M16.72 0.79 C20.02 0.49, 23.71 1.41, 26.22 3.4 C28.73 5.38, 31.26 9.53, 31.79 12.69 C32.32 15.85, 31.28 19.87, 29.38 22.37 C27.48 24.88, 23.72 26.7, 20.39 27.73 C17.07 28.75, 12.38 29.61, 9.44 28.53 C6.49 27.44, 4.31 24.02, 2.71 21.22 C1.11 18.41, -0.75 14.78, -0.16 11.71 C0.43 8.64, 3.34 4.57, 6.27 2.81 C9.2 1.04, 15 1.47, 17.41 1.1 C19.82 0.73, 20.63 0.36, 20.71 0.6 M15.32 0.61 C18.41 0.42, 23.3 1.15, 25.97 2.86 C28.64 4.58, 30.77 7.83, 31.34 10.88 C31.9 13.92, 30.86 18.36, 29.37 21.15 C27.87 23.95, 25.29 26.65, 22.39 27.65 C19.49 28.65, 15.49 28.26, 11.96 27.15 C8.44 26.03, 3.26 23.45, 1.27 20.96 C-0.72 18.46, -0.74 14.9, 0.01 12.19 C0.77 9.48, 2.98 6.52, 5.8 4.7 C8.62 2.88, 15.3 2.22, 16.94 1.28 C18.59 0.35, 15.88 -1.14, 15.66 -0.89" stroke="#000000" stroke-width="2" fill="none"></path></g><g stroke-linecap="round" transform="translate(434.28571428571445 255.73805278382787) rotate(0 15.714285714285666 14.285714285714278)"><path d="M14.59 0.44 C17.62 -0.15, 21.46 1.26, 24.28 2.89 C27.11 4.53, 30.42 7.49, 31.55 10.22 C32.68 12.95, 32.5 16.6, 31.05 19.26 C29.6 21.93, 25.84 24.6, 22.83 26.2 C19.82 27.79, 16.32 29.47, 13.02 28.85 C9.71 28.23, 5.19 24.92, 3.02 22.46 C0.85 20.01, -0.12 17.23, 0 14.12 C0.12 11.01, 0.92 6.09, 3.74 3.79 C6.56 1.5, 14.58 0.91, 16.92 0.36 C19.26 -0.19, 17.78 0.31, 17.78 0.48 M20.92 0.93 C24.06 1.67, 26.92 4.18, 28.53 6.69 C30.13 9.2, 30.92 12.78, 30.55 15.98 C30.18 19.18, 28.64 23.53, 26.3 25.86 C23.96 28.2, 19.97 30.18, 16.53 30 C13.09 29.82, 8.43 26.88, 5.64 24.76 C2.85 22.65, 0.4 20.07, -0.22 17.3 C-0.83 14.53, 0.09 10.59, 1.93 8.13 C3.77 5.67, 7.55 3.78, 10.83 2.55 C14.11 1.32, 20.23 1.02, 21.59 0.75 C22.96 0.49, 19.1 0.66, 19.04 0.97" stroke="#000000" stroke-width="2" fill="none"></path></g><g stroke-linecap="round" transform="translate(565.7142857142856 414.3094813552564) rotate(0 15.714285714285666 14.285714285714278)"><path d="M22.67 2.06 C25.63 3.14, 29.4 6.04, 30.9 8.64 C32.4 11.24, 32.75 14.89, 31.67 17.67 C30.6 20.46, 27.24 23.43, 24.43 25.34 C21.63 27.25, 18.22 29.4, 14.85 29.13 C11.48 28.87, 6.69 25.97, 4.22 23.75 C1.75 21.53, 0.29 18.92, 0.01 15.81 C-0.26 12.7, 0.41 7.6, 2.56 5.09 C4.71 2.58, 9.18 1.11, 12.91 0.76 C16.64 0.41, 22.4 2.27, 24.95 2.99 C27.51 3.7, 28.25 4.92, 28.25 5.05 M14.24 0.22 C17.19 -0.23, 21.42 0.72, 24.18 2.67 C26.95 4.63, 29.89 8.73, 30.83 11.95 C31.77 15.17, 31.39 19.58, 29.84 21.99 C28.28 24.4, 24.67 25.43, 21.49 26.4 C18.32 27.38, 13.87 28.46, 10.77 27.83 C7.67 27.19, 4.48 24.88, 2.91 22.61 C1.33 20.34, 0.81 17.29, 1.34 14.22 C1.86 11.14, 4.06 6.5, 6.08 4.14 C8.09 1.79, 11.78 0.64, 13.43 0.1 C15.08 -0.44, 16 0.51, 15.99 0.89" stroke="#000000" stroke-width="2" fill="none"></path></g></svg>