<?xml version="1.0" encoding="UTF-8" standalone="no"?>
<svg
   xmlns:dc="http://purl.org/dc/elements/1.1/"
   xmlns:cc="http://creativecommons.org/ns#"
   xmlns:rdf="http://www.w3.org/1999/02/22-rdf-syntax-ns#"
   xmlns:svg="http://www.w3.org/2000/svg"
   xmlns="http://www.w3.org/2000/svg"
   xmlns:sodipodi="http://sodipodi.sourceforge.net/DTD/sodipodi-0.dtd"
   xmlns:inkscape="http://www.inkscape.org/namespaces/inkscape"
   fill="white"
   opacity="0.5"
   stroke-width="0"
   viewBox="0 0 512 512"
   height="64px"
   width="64px"
   version="1.1"
   id="svg4"
   sodipodi:docname="user.svg"
   inkscape:version="0.92.3 (2405546, 2018-03-11)">
  <metadata
     id="metadata10">
    <rdf:RDF>
      <cc:Work
         rdf:about="">
        <dc:format>image/svg+xml</dc:format>
        <dc:type
           rdf:resource="http://purl.org/dc/dcmitype/StillImage" />
      </cc:Work>
    </rdf:RDF>
  </metadata>
  <defs
     id="defs8" />
  <sodipodi:namedview
     pagecolor="#ffffff"
     bordercolor="#666666"
     borderopacity="1"
     objecttolerance="10"
     gridtolerance="10"
     guidetolerance="10"
     inkscape:pageopacity="0"
     inkscape:pageshadow="2"
     inkscape:window-width="2560"
     inkscape:window-height="1398"
     id="namedview6"
     showgrid="false"
     inkscape:zoom="3.6875"
     inkscape:cx="-32.677966"
     inkscape:cy="32"
     inkscape:window-x="3840"
     inkscape:window-y="20"
     inkscape:window-maximized="0"
     inkscape:current-layer="svg4" />
  <path
     style="stroke-width:0.78124994"
     inkscape:connector-curvature="0"
     d="M 255.99999,281 C 318.10937,281 368.5,230.60938 368.5,168.5 368.5,106.39062 318.10937,56 255.99999,56 193.89062,56 143.5,106.39062 143.5,168.5 143.5,230.60938 193.89062,281 255.99999,281 Z M 356,306 h -43.04688 c -17.34375,7.96875 -36.64062,12.5 -56.95313,12.5 -20.31249,0 -39.53124,-4.53125 -56.95312,-12.5 H 156 C 100.76562,306 55.999998,350.76562 55.999998,406 v 12.5 c 0,20.70312 16.796875,37.5 37.499999,37.5 H 418.5 c 20.70312,0 37.5,-16.79688 37.5,-37.5 V 406 C 456,350.76562 411.23437,306 356,306 Z"
     id="path2" />
</svg>
