<?xml version="1.0" encoding="UTF-8" standalone="no"?>
<!-- Generator: Adobe Illustrator 16.0.0, SVG Export Plug-In . SVG Version: 6.00 Build 0)  -->

<svg
   xmlns:dc="http://purl.org/dc/elements/1.1/"
   xmlns:cc="http://creativecommons.org/ns#"
   xmlns:rdf="http://www.w3.org/1999/02/22-rdf-syntax-ns#"
   xmlns:svg="http://www.w3.org/2000/svg"
   xmlns="http://www.w3.org/2000/svg"
   xmlns:sodipodi="http://sodipodi.sourceforge.net/DTD/sodipodi-0.dtd"
   xmlns:inkscape="http://www.inkscape.org/namespaces/inkscape"
   version="1.1"
   id="Calque_1"
   x="0px"
   y="0px"
   width="20"
   height="18"
   viewBox="0 0 20 18"
   enable-background="new 0 0 24 24"
   xml:space="preserve"
   sodipodi:docname="logo-sigma.svg"
   inkscape:version="0.92.3 (2405546, 2018-03-11)"><metadata
   id="metadata13"><rdf:RDF><cc:Work
       rdf:about=""><dc:format>image/svg+xml</dc:format><dc:type
         rdf:resource="http://purl.org/dc/dcmitype/StillImage" /><dc:title></dc:title></cc:Work></rdf:RDF></metadata><defs
   id="defs11" /><sodipodi:namedview
   pagecolor="#ffffff"
   bordercolor="#666666"
   borderopacity="1"
   objecttolerance="10"
   gridtolerance="10"
   guidetolerance="10"
   inkscape:pageopacity="0"
   inkscape:pageshadow="2"
   inkscape:window-width="1920"
   inkscape:window-height="1038"
   id="namedview9"
   showgrid="false"
   inkscape:zoom="9.8333333"
   inkscape:cx="-7.8813553"
   inkscape:cy="3.8644068"
   inkscape:window-x="0"
   inkscape:window-y="20"
   inkscape:window-maximized="0"
   inkscape:current-layer="Calque_1" />



<path
   d="M 9.2968842,0 A 8.999884,8.9999995 0 0 0 0.297,9.0000004 8.999884,8.9999995 0 0 0 9.2968842,18 8.999884,8.9999995 0 0 0 18.296768,9.0000004 8.999884,8.9999995 0 0 0 15.238215,2.2499999 H 19.703 V 0 H 9.5781301 V 0.01314 A 8.999884,8.9999995 0 0 0 9.2968842,0 Z m 0,2.2499999 A 6.749913,6.7499997 0 0 1 16.046797,9.0000004 6.749913,6.7499997 0 0 1 9.2968842,15.75 6.749913,6.7499997 0 0 1 2.546971,9.0000004 6.749913,6.7499997 0 0 1 9.2968842,2.2499999 Z"
   id="circle2"
   inkscape:connector-curvature="0"
   style="stroke-width:1.12499273" /></svg>