<?xml version="1.0" encoding="UTF-8" standalone="no"?>
<!-- Created with Inkscape (http://www.inkscape.org/) -->

<svg
   width="270"
   height="74"
   viewBox="0 0 71.437499 19.579167"
   version="1.1"
   id="svg5"
   inkscape:version="1.1.2 (0a00cf5339, 2022-02-04)"
   sodipodi:docname="logo-sigma-text.svg"
   xmlns:inkscape="http://www.inkscape.org/namespaces/inkscape"
   xmlns:sodipodi="http://sodipodi.sourceforge.net/DTD/sodipodi-0.dtd"
   xmlns="http://www.w3.org/2000/svg"
   xmlns:svg="http://www.w3.org/2000/svg">
  <sodipodi:namedview
     id="namedview7"
     pagecolor="#ffffff"
     bordercolor="#666666"
     borderopacity="1.0"
     inkscape:pageshadow="2"
     inkscape:pageopacity="0.0"
     inkscape:pagecheckerboard="0"
     inkscape:document-units="mm"
     showgrid="false"
     inkscape:zoom="2.1997092"
     inkscape:cx="113.87869"
     inkscape:cy="-53.643454"
     inkscape:window-width="1918"
     inkscape:window-height="1045"
     inkscape:window-x="2560"
     inkscape:window-y="16"
     inkscape:window-maximized="1"
     inkscape:current-layer="g13631"
     units="px" />
  <defs
     id="defs2">
    <rect
       x="107.07391"
       y="139.99789"
       width="496.17249"
       height="278.72925"
       id="rect1904" />
  </defs>
  <g
     inkscape:label="Layer 1"
     inkscape:groupmode="layer"
     id="layer1">
    <g
       id="g13765"
       transform="translate(-4.6883664,-79.055681)">
      <g
         id="g13631"
         transform="matrix(0.18400621,0,0,0.18400621,2.7660505,71.7085)">
        <g
           id="g994"
           transform="matrix(1.0051481,0,0,1.0051481,16.299273,45.386902)">
          <circle
             cx="47.5"
             cy="47.5"
             r="45.5"
             stroke="#e22653"
             stroke-width="4"
             id="circle4"
             style="fill:none;fill-opacity:1" />
          <path
             d="m 45.9995,29.5555 c -2.5534,0 -5.0818,0.503 -7.4409,1.4802 -2.359,0.9771 -4.5025,2.4094 -6.308,4.215 -1.8056,1.8056 -3.2378,3.9491 -4.215,6.3082 -0.9771,2.3591 -1.4801,4.8876 -1.4801,7.4411 0,2.5535 0.503,5.0819 1.4801,7.4411 0.9772,2.3591 2.4094,4.5026 4.215,6.3082 1.8055,1.8056 3.949,3.2378 6.308,4.215 2.3591,0.9772 4.8875,1.4801 7.4409,1.4801 5.1569,0 10.1026,-2.0486 13.749,-5.6951 3.6465,-3.6466 5.695,-8.5923 5.695,-13.7493 -0.0031,-2.7606 -0.594,-5.4889 -1.7333,-8.0034 -1.1394,-2.5145 -2.8011,-4.7575 -4.8746,-6.5799 h 9.6461 V 29.5555 H 46.6072 v 0.0284 c -0.2024,-0.0126 -0.405,-0.0221 -0.6077,-0.0284 z m 0,4.8612 c 1.9151,0 3.8114,0.3772 5.5807,1.11 1.7693,0.7329 3.3769,1.8071 4.7311,3.1613 1.3541,1.3542 2.4283,2.9619 3.1612,4.7312 0.7328,1.7693 1.11,3.6657 1.11,5.5808 0,3.8677 -1.5364,7.5771 -4.2712,10.312 -2.7349,2.7349 -6.4441,4.2713 -10.3118,4.2713 -1.915,0 -3.8113,-0.3772 -5.5806,-1.1101 C 38.6496,61.7404 37.042,60.6662 35.6878,59.312 34.3336,57.9578 33.2595,56.3501 32.5266,54.5808 31.7937,52.8115 31.4165,50.9151 31.4165,49 c 0,-1.9151 0.3772,-3.8115 1.1101,-5.5808 0.7329,-1.7693 1.807,-3.377 3.1612,-4.7312 1.3542,-1.3542 2.9618,-2.4284 4.7311,-3.1613 1.7693,-0.7328 3.6656,-1.11 5.5806,-1.11 z"
             fill="#e22653"
             id="path6" />
        </g>
      </g>
      <g
         id="g13749">
        <path
           d="m 28.655228,92.761641 q -1.27,0 -2.06375,-0.5715 -0.79375,-0.5715 -0.9652,-1.60655 l 1.5621,-0.2413 q 0.1143,0.51435 0.52705,0.80645 0.4191,0.28575 1.04775,0.28575 0.5461,0 0.8509,-0.2159 0.3048,-0.22225 0.3048,-0.60325 0,-0.24765 -0.12065,-0.381 -0.1143,-0.13335 -0.46355,-0.26035 -0.34925,-0.13335 -1.16205,-0.34925 -0.86995,-0.2286 -1.37795,-0.48895 -0.50165,-0.2667 -0.7239,-0.6223 -0.22225,-0.36195 -0.22225,-0.88265 0,-0.635 0.3302,-1.11125 0.33655,-0.47625 0.94615,-0.7366 0.61595,-0.26035 1.4224,-0.26035 0.79375,0 1.41605,0.24765 0.6223,0.24765 1.0033,0.7112 0.38735,0.4572 0.4699,1.0668 l -1.5621,0.2794 q -0.0635,-0.43815 -0.4064,-0.69215 -0.33655,-0.254 -0.89535,-0.28575 -0.53975,-0.0254 -0.86995,0.17145 -0.3302,0.1905 -0.3302,0.5334 0,0.20955 0.13335,0.3429 0.1397,0.13335 0.52705,0.27305 0.38735,0.13335 1.21285,0.3429 0.83185,0.2159 1.31445,0.4826 0.48895,0.2667 0.70485,0.64135 0.22225,0.3683 0.22225,0.90805 0,0.6858 -0.3429,1.18745 -0.33655,0.4953 -0.9779,0.762 -0.635,0.2667 -1.5113,0.2667 z"
           style="font-weight:bold;font-size:48px;line-height:1.25;font-family:Hauora;-inkscape-font-specification:'Hauora Bold';white-space:pre;fill:#e22653;fill-opacity:1;stroke-width:0.264583"
           id="path13134" />
        <path
           d="m 34.541654,92.571141 h -1.53035 v -6.858 h 1.53035 z m -0.76835,-7.6835 q -0.254,0 -0.46355,-0.12065 -0.20955,-0.12065 -0.3302,-0.3302 -0.12065,-0.20955 -0.12065,-0.46355 0,-0.254 0.12065,-0.46355 0.12065,-0.20955 0.3302,-0.3302 0.20955,-0.12065 0.46355,-0.12065 0.26035,0 0.4699,0.12065 0.20955,0.12065 0.3302,0.3302 0.12065,0.20955 0.12065,0.46355 0,0.254 -0.12065,0.46355 -0.12065,0.20955 -0.3302,0.3302 -0.20955,0.12065 -0.4699,0.12065 z"
           style="font-weight:bold;font-size:48px;line-height:1.25;font-family:Hauora;-inkscape-font-specification:'Hauora Bold';white-space:pre;fill:#e22653;fill-opacity:1;stroke-width:0.264583"
           id="path13136" />
        <path
           d="m 41.151985,85.713141 h 1.33985 v 7.1882 q 0,0.55245 -0.09525,0.9652 -0.2286,0.9652 -1.04775,1.45415 -0.8128,0.48895 -2.0193,0.48895 -0.8636,0 -1.59385,-0.40005 -0.730249,-0.3937 -1.130299,-1.0922 l 1.409699,-0.6985 q 0.18415,0.3556 0.53975,0.5461 0.3556,0.1905 0.78105,0.1905 0.74295,0 1.18745,-0.38735 0.45085,-0.381 0.43815,-1.0922 v -0.65405 q -0.73025,0.53975 -1.7653,0.53975 -0.9271,0 -1.64465,-0.4699 -0.711199,-0.47625 -1.098549,-1.2954 -0.38735,-0.8255 -0.38735,-1.8542 0,-1.0414 0.3937,-1.86055 0.3937,-0.8255 1.117599,-1.28905 0.7239,-0.4699 1.6764,-0.4699 1.143,0 1.89865,0.6858 z m -1.72085,5.6769 q 0.88265,0 1.30175,-0.5969 0.4191,-0.60325 0.4191,-1.651 0,-1.04775 -0.41275,-1.64465 -0.41275,-0.60325 -1.2573,-0.60325 -0.5969,0 -1.0033,0.29845 -0.40005,0.2921 -0.5969,0.8001 -0.19685,0.508 -0.19685,1.14935 0,0.6477 0.1905,1.1557 0.19685,0.508 0.5842,0.8001 0.3937,0.2921 0.97155,0.2921 z"
           style="font-weight:bold;font-size:48px;line-height:1.25;font-family:Hauora;-inkscape-font-specification:'Hauora Bold';white-space:pre;fill:#e22653;fill-opacity:1;stroke-width:0.264583"
           id="path13138" />
        <path
           d="m 51.686625,85.541691 q 0.74295,0 1.27,0.31115 0.5334,0.3048 0.80645,0.8636 0.27305,0.55245 0.27305,1.30175 v 4.55295 h -1.53035 v -4.1656 q 0,-0.6985 -0.34925,-1.09855 -0.34925,-0.40005 -0.94615,-0.40005 -0.3683,0 -0.66675,0.17145 -0.2921,0.17145 -0.46355,0.50165 -0.1651,0.32385 -0.1651,0.76835 v 4.22275 h -1.524 v -4.14655 q 0,-0.7112 -0.34925,-1.11125 -0.34925,-0.4064 -0.9525,-0.4064 -0.38735,0 -0.67945,0.18415 -0.2921,0.1778 -0.45085,0.508 -0.15875,0.32385 -0.15875,0.7493 v 4.22275 h -1.54305 v -6.858 h 1.35255 v 0.74295 q 0.3429,-0.4318 0.85725,-0.6731 0.5207,-0.2413 1.1303,-0.2413 0.70485,0 1.21285,0.2921 0.508,0.28575 0.7874,0.8001 0.3175,-0.51435 0.86995,-0.8001 0.55245,-0.2921 1.2192,-0.2921 z"
           style="font-weight:bold;font-size:48px;line-height:1.25;font-family:Hauora;-inkscape-font-specification:'Hauora Bold';white-space:pre;fill:#e22653;fill-opacity:1;stroke-width:0.264583"
           id="path13140" />
        <path
           d="m 61.090953,86.798991 q 0.1651,0.3302 0.20955,0.6858 0.0508,0.34925 0.0508,0.8763 v 4.21005 h -1.33985 v -0.92075 q -0.43815,0.57785 -1.016,0.84455 -0.57785,0.2667 -1.39065,0.2667 -0.723899,0 -1.244599,-0.27305 -0.51435,-0.2794 -0.7874,-0.7493 -0.2667,-0.4699 -0.2667,-1.04775 0,-0.75565 0.37465,-1.26365 0.381,-0.508 1.18745,-0.7874 0.450849,-0.14605 1.035049,-0.24765 0.59055,-0.10795 1.68275,-0.27305 l 0.2667,-0.0381 q -0.04445,-0.5969 -0.381,-0.8763 -0.3302,-0.2794 -1.02235,-0.2794 -0.508,0 -0.9271,0.23495 -0.41275,0.23495 -0.571499,0.7239 l -1.397,-0.43815 q 0.26035,-0.9017 0.9906,-1.4097 0.730249,-0.51435 1.904999,-0.51435 0.9525,0 1.63195,0.31115 0.6858,0.31115 1.00965,0.9652 z m -1.4097,3.6068 q 0.1397,-0.33655 0.1524,-1.0668 -0.99695,0.15875 -1.4351,0.2413 -0.4318,0.0762 -0.762,0.1905 -0.41275,0.1524 -0.6223,0.3683 -0.209549,0.2159 -0.209549,0.5334 0,0.38735 0.285749,0.62865 0.2921,0.2413 0.81915,0.2413 0.48895,0 0.85725,-0.17145 0.37465,-0.1778 0.60325,-0.43815 0.2286,-0.26035 0.31115,-0.52705 z"
           style="font-weight:bold;font-size:48px;line-height:1.25;font-family:Hauora;-inkscape-font-specification:'Hauora Bold';white-space:pre;fill:#e22653;fill-opacity:1;stroke-width:0.264583"
           id="path13142" />
        <path
           d="m 64.037332,92.691791 q -0.254,0 -0.46355,-0.12065 -0.20955,-0.12065 -0.3302,-0.3302 -0.12065,-0.20955 -0.12065,-0.46355 0,-0.254 0.12065,-0.46355 0.12065,-0.20955 0.3302,-0.3302 0.20955,-0.12065 0.46355,-0.12065 0.26035,0 0.4699,0.12065 0.20955,0.12065 0.3302,0.3302 0.12065,0.20955 0.12065,0.46355 0,0.254 -0.12065,0.46355 -0.12065,0.20955 -0.3302,0.3302 -0.20955,0.12065 -0.4699,0.12065 z"
           style="font-weight:bold;font-size:48px;line-height:1.25;font-family:Hauora;-inkscape-font-specification:'Hauora Bold';white-space:pre;fill:#999999;fill-opacity:1;stroke-width:0.264583"
           id="path13144" />
        <path
           d="m 67.955272,84.887641 q -0.26035,0 -0.4699,-0.12065 -0.20955,-0.12065 -0.3302,-0.3302 -0.12065,-0.20955 -0.12065,-0.46355 0,-0.254 0.12065,-0.46355 0.12065,-0.20955 0.3302,-0.3302 0.20955,-0.12065 0.4699,-0.12065 0.26035,0 0.4699,0.12065 0.20955,0.12065 0.3302,0.3302 0.12065,0.20955 0.12065,0.46355 0,0.254 -0.12065,0.46355 -0.12065,0.20955 -0.3302,0.3302 -0.20955,0.12065 -0.4699,0.12065 z m -2.11455,10.7315 v -1.4351 h 0.32385 q 0.5461,0 0.7874,-0.254 0.2413,-0.254 0.2413,-0.7747 v -7.4422 h 1.524 v 8.128 q 0,0.83185 -0.48895,1.30175 -0.48895,0.47625 -1.3462,0.47625 z"
           style="font-weight:bold;font-size:48px;line-height:1.25;font-family:Hauora;-inkscape-font-specification:'Hauora Bold';white-space:pre;fill:#999999;fill-opacity:1;stroke-width:0.264583"
           id="path13146" />
        <path
           d="m 73.168619,92.761641 q -1.27,0 -2.06375,-0.5715 -0.79375,-0.5715 -0.9652,-1.60655 l 1.5621,-0.2413 q 0.1143,0.51435 0.52705,0.80645 0.4191,0.28575 1.04775,0.28575 0.5461,0 0.8509,-0.2159 0.3048,-0.22225 0.3048,-0.60325 0,-0.24765 -0.12065,-0.381 -0.1143,-0.13335 -0.46355,-0.26035 -0.34925,-0.13335 -1.16205,-0.34925 -0.86995,-0.2286 -1.37795,-0.48895 -0.50165,-0.2667 -0.7239,-0.6223 -0.22225,-0.36195 -0.22225,-0.88265 0,-0.635 0.3302,-1.11125 0.33655,-0.47625 0.94615,-0.7366 0.61595,-0.26035 1.4224,-0.26035 0.79375,0 1.41605,0.24765 0.6223,0.24765 1.0033,0.7112 0.38735,0.4572 0.4699,1.0668 l -1.5621,0.2794 q -0.0635,-0.43815 -0.4064,-0.69215 -0.33655,-0.254 -0.89535,-0.28575 -0.53975,-0.0254 -0.86995,0.17145 -0.3302,0.1905 -0.3302,0.5334 0,0.20955 0.13335,0.3429 0.1397,0.13335 0.52705,0.27305 0.38735,0.13335 1.21285,0.3429 0.83185,0.2159 1.31445,0.4826 0.48895,0.2667 0.70485,0.64135 0.22225,0.3683 0.22225,0.90805 0,0.6858 -0.3429,1.18745 -0.33655,0.4953 -0.9779,0.762 -0.635,0.2667 -1.5113,0.2667 z"
           style="font-weight:bold;font-size:48px;line-height:1.25;font-family:Hauora;-inkscape-font-specification:'Hauora Bold';white-space:pre;fill:#999999;fill-opacity:1;stroke-width:0.264583"
           id="path13148" />
      </g>
    </g>
  </g>
</svg>
