<?xml version="1.0" encoding="UTF-8" standalone="no"?>
<!-- Generator: Adobe Illustrator 16.0.0, SVG Export Plug-In . SVG Version: 6.00 Build 0)  -->

<svg
   xmlns:dc="http://purl.org/dc/elements/1.1/"
   xmlns:cc="http://creativecommons.org/ns#"
   xmlns:rdf="http://www.w3.org/1999/02/22-rdf-syntax-ns#"
   xmlns:svg="http://www.w3.org/2000/svg"
   xmlns="http://www.w3.org/2000/svg"
   xmlns:sodipodi="http://sodipodi.sourceforge.net/DTD/sodipodi-0.dtd"
   xmlns:inkscape="http://www.inkscape.org/namespaces/inkscape"
   version="1.1"
   id="Calque_1"
   x="0px"
   y="0px"
   width="18"
   height="18"
   viewBox="0 0 18 18"
   enable-background="new 0 0 24 24"
   xml:space="preserve"
   sodipodi:docname="sigma-logo-disc.svg"
   inkscape:version="0.92.3 (2405546, 2018-03-11)"><metadata
   id="metadata13"><rdf:RDF><cc:Work
       rdf:about=""><dc:format>image/svg+xml</dc:format><dc:type
         rdf:resource="http://purl.org/dc/dcmitype/StillImage" /><dc:title></dc:title></cc:Work></rdf:RDF></metadata><defs
   id="defs11" /><sodipodi:namedview
   pagecolor="#ffffff"
   bordercolor="#666666"
   borderopacity="1"
   objecttolerance="10"
   gridtolerance="10"
   guidetolerance="10"
   inkscape:pageopacity="0"
   inkscape:pageshadow="2"
   inkscape:window-width="2560"
   inkscape:window-height="1398"
   id="namedview9"
   showgrid="false"
   inkscape:zoom="9.8333333"
   inkscape:cx="-36.508474"
   inkscape:cy="12"
   inkscape:window-x="3840"
   inkscape:window-y="20"
   inkscape:window-maximized="0"
   inkscape:current-layer="Calque_1" />



<circle
   style="fill:#ffffff;fill-opacity:1;stroke:none;stroke-width:0.55312496;stroke-linejoin:bevel;stroke-miterlimit:3.86369991;stroke-dasharray:0.55312499, 2.21249995000000022;stroke-dashoffset:0;stroke-opacity:1;paint-order:markers fill stroke"
   id="path812"
   cx="9"
   cy="9"
   r="9" /><path
   d="M 8.9998841,3.9999996 A 4.999884,4.9999999 0 0 0 4,9 4.999884,4.9999999 0 0 0 8.9998841,14 4.999884,4.9999999 0 0 0 13.999768,9 4.999884,4.9999999 0 0 0 12.300589,5.2499996 H 14.781 v -1.25 H 9.1561304 v 0.0073 a 4.999884,4.9999999 0 0 0 -0.1562463,-0.0073 z m 0,1.25 A 3.749913,3.75 0 0 1 12.749797,9 3.749913,3.75 0 0 1 8.9998841,12.75 3.749913,3.75 0 0 1 5.249971,9 3.749913,3.75 0 0 1 8.9998841,5.2499996 Z"
   id="circle2"
   inkscape:connector-curvature="0"
   style="stroke-width:0.62499273" /></svg>